<svg version="1.1" id="Layer_1" xmlns="http://www.w3.org/2000/svg" xmlns:xlink="http://www.w3.org/1999/xlink" x="0px" y="0px"
	 width="100%" viewBox="0 0 1526 1409" enable-background="new 0 0 1526 1409" xml:space="preserve">
<path fill="#FFFFFF" opacity="1.000000" stroke="none" 
	d="
M846.000000,1410.000000 
	C564.000061,1410.000000 282.500092,1410.000000 1.000113,1410.000000 
	C1.000076,940.333496 1.000076,470.666931 1.000038,1.000302 
	C509.666412,1.000202 1018.332825,1.000202 1526.999512,1.000101 
	C1526.999634,470.666351 1526.999634,940.332703 1526.999756,1409.999512 
	C1300.166626,1410.000000 1073.333374,1410.000000 846.000000,1410.000000 
M236.759079,407.348694 
	C232.928802,415.990723 228.927200,424.561432 225.294846,433.285858 
	C191.065857,515.499451 172.978546,601.190186 170.378525,690.156067 
	C168.875519,741.585510 172.934433,792.634277 182.353165,843.198242 
	C193.040497,900.572876 210.470718,955.875305 234.877213,1008.919006 
	C271.996674,1089.592163 322.383392,1160.875732 386.508423,1222.365234 
	C435.708832,1269.543579 490.678589,1308.646851 551.751343,1338.940308 
	C648.698792,1387.028687 751.304321,1409.927124 859.581909,1407.377930 
	C912.224854,1406.138428 963.930481,1398.708130 1014.721558,1384.940674 
	C1089.004517,1364.805786 1157.598022,1332.425781 1220.567505,1288.248291 
	C1282.706177,1244.653687 1336.049072,1192.044922 1380.850708,1130.742676 
	C1421.208252,1075.520996 1452.741821,1015.665039 1475.713013,951.275024 
	C1496.883057,891.934143 1509.813599,830.803223 1514.813110,768.031982 
	C1518.031860,727.619812 1517.810059,687.192261 1514.260254,646.773804 
	C1510.921631,608.758606 1504.754395,571.236938 1495.441284,534.244141 
	C1479.053223,469.148682 1454.033081,407.557098 1420.146362,349.584076 
	C1378.395752,278.157593 1325.680664,216.029022 1261.816650,163.453918 
	C1212.642822,122.972214 1158.769409,90.087395 1100.156982,65.075272 
	C1032.327759,36.129936 961.588806,19.098391 888.021240,14.185505 
	C838.859924,10.902480 789.917908,13.057934 741.177429,20.784899 
	C692.755188,28.461418 645.807251,41.286476 600.375854,59.563835 
	C534.652893,86.004631 474.700623,122.125473 420.398010,167.666656 
	C359.478149,218.757462 309.030212,278.670868 268.168976,346.478333 
	C267.784637,345.953339 267.333954,345.464508 267.025574,344.898132 
	C255.915024,324.491547 244.983368,303.985413 233.670609,283.691681 
	C222.991180,264.534027 209.425461,258.555267 187.944031,262.645264 
	C165.614746,266.896698 143.293549,271.210693 120.898445,275.091309 
	C92.785294,279.962708 64.500702,283.897278 36.481506,289.240051 
	C17.408045,292.876953 7.556392,300.970032 8.981118,321.625702 
	C9.570056,330.164062 13.210753,337.025208 21.464989,340.485748 
	C28.635782,343.492065 36.196266,344.461060 43.923092,343.356232 
	C53.443092,341.994965 62.976154,340.679932 72.444046,339.007812 
	C101.848526,333.814697 131.267288,328.684875 160.597794,323.096344 
	C181.670578,319.081207 192.170197,323.336853 202.427979,341.703796 
	C209.630417,354.600037 216.540894,367.660309 223.502106,380.689850 
	C228.110733,389.316010 232.578461,398.017456 236.759079,407.348694 
z"/>
<path fill="#000000" opacity="1.000000" stroke="none" 
	d="
M268.526703,347.026764 
	C309.030212,278.670868 359.478149,218.757462 420.398010,167.666656 
	C474.700623,122.125473 534.652893,86.004631 600.375854,59.563835 
	C645.807251,41.286476 692.755188,28.461418 741.177429,20.784899 
	C789.917908,13.057934 838.859924,10.902480 888.021240,14.185505 
	C961.588806,19.098391 1032.327759,36.129936 1100.156982,65.075272 
	C1158.769409,90.087395 1212.642822,122.972214 1261.816650,163.453918 
	C1325.680664,216.029022 1378.395752,278.157593 1420.146362,349.584076 
	C1454.033081,407.557098 1479.053223,469.148682 1495.441284,534.244141 
	C1504.754395,571.236938 1510.921631,608.758606 1514.260254,646.773804 
	C1517.810059,687.192261 1518.031860,727.619812 1514.813110,768.031982 
	C1509.813599,830.803223 1496.883057,891.934143 1475.713013,951.275024 
	C1452.741821,1015.665039 1421.208252,1075.520996 1380.850708,1130.742676 
	C1336.049072,1192.044922 1282.706177,1244.653687 1220.567505,1288.248291 
	C1157.598022,1332.425781 1089.004517,1364.805786 1014.721558,1384.940674 
	C963.930481,1398.708130 912.224854,1406.138428 859.581909,1407.377930 
	C751.304321,1409.927124 648.698792,1387.028687 551.751343,1338.940308 
	C490.678589,1308.646851 435.708832,1269.543579 386.508423,1222.365234 
	C322.383392,1160.875732 271.996674,1089.592163 234.877213,1008.919006 
	C210.470718,955.875305 193.040497,900.572876 182.353165,843.198242 
	C172.934433,792.634277 168.875519,741.585510 170.378525,690.156067 
	C172.978546,601.190186 191.065857,515.499451 225.294846,433.285858 
	C228.927200,424.561432 232.928802,415.990723 237.243988,407.189758 
	C242.186447,415.210571 246.648392,423.387939 251.100922,431.570435 
	C305.789795,532.073486 360.494629,632.567871 415.159393,733.084045 
	C454.564972,805.542053 493.884277,878.047119 533.317322,950.490173 
	C542.218445,966.842590 550.944031,983.323547 560.654541,999.192078 
	C568.569214,1012.125793 581.000183,1018.124756 596.262146,1017.057495 
	C603.699890,1016.537537 611.109375,1015.304382 618.469727,1014.035095 
	C670.929443,1004.987976 723.373962,995.852844 775.821777,986.736572 
	C834.651611,976.511108 893.471252,966.227417 952.311157,956.060181 
	C1001.650879,947.534485 1051.017700,939.165100 1100.364502,930.680359 
	C1150.036621,922.139709 1199.710083,913.604736 1249.357178,904.919434 
	C1260.319946,903.001587 1271.250366,900.772217 1282.055786,898.117554 
	C1291.828003,895.716675 1297.697510,888.961548 1299.870850,879.211121 
	C1301.134888,873.539673 1302.196411,867.793823 1302.873291,862.025635 
	C1306.114014,834.412720 1309.150513,806.776062 1312.339111,779.156982 
	C1315.832153,748.899597 1319.451172,718.656860 1322.942505,688.399353 
	C1326.453125,657.974976 1329.846680,627.537109 1333.342529,597.110962 
	C1337.198608,563.548340 1341.116577,529.992920 1345.000366,496.433472 
	C1347.909302,471.297821 1351.011719,446.182159 1353.621948,421.015472 
	C1354.907104,408.625061 1355.964722,396.133911 1355.868896,383.698059 
	C1355.762817,369.931976 1348.820923,362.421936 1335.128662,360.776245 
	C1327.963989,359.915070 1320.435669,360.252350 1313.287720,361.397125 
	C1284.059570,366.078033 1254.910522,371.254028 1225.740234,376.293488 
	C1176.239990,384.845154 1126.750854,393.461426 1077.247559,401.994812 
	C1026.102295,410.811249 974.938904,419.523071 923.795532,428.350769 
	C870.684998,437.518005 817.593323,446.793701 764.485413,455.976288 
	C716.787537,464.223419 669.079590,472.412323 621.374817,480.619965 
	C573.999268,488.770935 526.596069,496.765656 479.262543,505.153687 
	C465.875610,507.526001 452.326782,509.959747 439.501709,514.289307 
	C422.193481,520.132324 417.285339,532.315369 423.302948,549.546387 
	C426.124176,557.624695 431.661194,563.227722 440.209381,563.849915 
	C449.255920,564.508423 458.560516,564.647217 467.491760,563.293518 
	C493.472809,559.355286 519.321289,554.544067 545.225769,550.098633 
	C594.901184,541.573975 644.584229,533.093323 694.255005,524.541687 
	C737.694641,517.062805 781.118591,509.492523 824.555420,501.997314 
	C871.927124,493.823120 919.308899,485.707581 966.680298,477.531921 
	C1013.728149,469.412140 1060.765747,461.232941 1107.812988,453.110077 
	C1159.449219,444.194916 1211.090332,435.307892 1262.731812,426.423981 
	C1273.491211,424.573059 1284.262207,422.789337 1294.755981,421.020416 
	C1294.755981,429.351288 1295.459229,437.371796 1294.631836,445.231171 
	C1291.372437,476.194611 1287.597168,507.103485 1284.077881,538.039978 
	C1278.622192,585.997742 1273.184448,633.957520 1267.804321,681.923828 
	C1262.459961,729.570984 1257.154175,777.222473 1251.919556,824.881836 
	C1250.099121,841.456726 1243.546509,849.334167 1228.192261,852.769592 
	C1226.246704,853.204773 1224.277832,853.542847 1222.310913,853.873962 
	C1158.169800,864.671875 1094.009766,875.357483 1029.890869,886.284973 
	C962.330505,897.798767 894.785339,909.405151 827.278076,921.225403 
	C762.568176,932.555908 697.914124,944.205505 633.238220,955.730042 
	C611.033020,959.686707 598.817444,954.051086 587.459106,934.532471 
	C586.873474,933.526062 586.276489,932.525330 585.721375,931.502136 
	C538.457764,844.384460 491.242767,757.240356 443.925201,670.152039 
	C395.417511,580.873108 346.792206,491.658142 298.260193,402.392456 
	C288.254395,383.988678 278.433044,365.484589 268.526703,347.026764 
M760.875122,698.364746 
	C781.769287,695.265808 802.660339,692.145569 823.558289,689.072632 
	C863.059875,683.264343 902.570557,677.517639 942.067932,671.681091 
	C981.726929,665.820618 1021.371582,659.862793 1061.027832,653.984253 
	C1086.369141,650.227600 1111.723633,646.560364 1137.064575,642.801697 
	C1143.846802,641.795776 1145.767090,639.259399 1144.810425,632.661804 
	C1142.184814,614.556091 1139.531738,596.454163 1136.808228,578.362976 
	C1135.976440,572.837402 1132.909668,570.803955 1127.299561,571.634460 
	C1088.134521,577.432434 1048.967407,583.216919 1009.801147,589.006836 
	C966.357666,595.428894 922.911072,601.830383 879.471863,608.281128 
	C839.990479,614.144104 800.520996,620.087463 761.039124,625.947083 
	C723.692078,631.489929 686.329285,636.927246 648.988159,642.509033 
	C640.191345,643.824036 638.892212,646.032532 640.275574,654.984802 
	C642.916992,672.078491 645.469421,689.186035 648.001099,706.296387 
	C648.931702,712.585449 651.615479,714.672424 657.857788,713.742981 
	C691.907593,708.672974 725.958313,703.609741 760.875122,698.364746 
M823.396729,1154.213501 
	C813.315979,1095.897461 755.828064,1055.666260 697.677551,1066.232910 
	C636.065186,1077.428589 596.662048,1132.697876 608.183716,1194.134888 
	C616.668457,1239.378296 644.567444,1269.202148 689.024231,1280.359863 
	C733.495422,1291.521362 771.809631,1278.002808 801.215820,1242.665039 
	C822.309631,1217.316406 828.692444,1187.457397 823.396729,1154.213501 
M1258.394043,1028.133911 
	C1224.284302,986.794495 1171.862305,974.798401 1123.344238,997.229858 
	C1079.138794,1017.667358 1054.859497,1067.346802 1064.836670,1117.083496 
	C1081.698242,1201.138672 1178.495605,1231.318726 1241.095581,1180.662231 
	C1287.337524,1143.242798 1294.704712,1075.664429 1258.394043,1028.133911 
M1038.040039,762.611755 
	C1055.316895,760.053162 1072.613281,757.619263 1089.863525,754.891724 
	C1101.144043,753.108093 1104.577026,755.051697 1101.959473,739.509949 
	C1099.611450,725.570068 1097.844849,711.533081 1095.718018,697.554749 
	C1094.848511,691.840393 1092.298950,689.686768 1087.630005,690.368286 
	C1076.768066,691.953796 1065.908203,693.552917 1055.051514,695.174011 
	C999.926025,703.405090 944.807678,711.684265 889.675537,719.870728 
	C832.913391,728.299316 776.137939,736.638428 719.369324,745.023926 
	C714.342346,745.766479 712.477356,748.170105 713.122681,753.294922 
	C713.641968,757.419006 714.394897,761.513123 714.998169,765.627258 
	C716.759949,777.641602 718.438965,789.668396 720.271667,801.671875 
	C721.183533,807.644104 723.428406,809.109131 729.603271,808.235168 
	C733.556824,807.675598 737.518494,807.172180 741.468018,806.586121 
	C778.656494,801.068420 815.842407,795.533569 853.030457,790.013184 
	C887.753723,784.858643 922.477112,779.704163 957.203552,774.571167 
	C983.860168,770.631042 1010.521667,766.724182 1038.040039,762.611755 
z"/>
<path fill="#F9A929" opacity="1.000000" stroke="none" 
	d="
M268.347839,346.752563 
	C278.433044,365.484589 288.254395,383.988678 298.260193,402.392456 
	C346.792206,491.658142 395.417511,580.873108 443.925201,670.152039 
	C491.242767,757.240356 538.457764,844.384460 585.721375,931.502136 
	C586.276489,932.525330 586.873474,933.526062 587.459106,934.532471 
	C598.817444,954.051086 611.033020,959.686707 633.238220,955.730042 
	C697.914124,944.205505 762.568176,932.555908 827.278076,921.225403 
	C894.785339,909.405151 962.330505,897.798767 1029.890869,886.284973 
	C1094.009766,875.357483 1158.169800,864.671875 1222.310913,853.873962 
	C1224.277832,853.542847 1226.246704,853.204773 1228.192261,852.769592 
	C1243.546509,849.334167 1250.099121,841.456726 1251.919556,824.881836 
	C1257.154175,777.222473 1262.459961,729.570984 1267.804321,681.923828 
	C1273.184448,633.957520 1278.622192,585.997742 1284.077881,538.039978 
	C1287.597168,507.103485 1291.372437,476.194611 1294.631836,445.231171 
	C1295.459229,437.371796 1294.755981,429.351288 1294.755981,421.020416 
	C1284.262207,422.789337 1273.491211,424.573059 1262.731812,426.423981 
	C1211.090332,435.307892 1159.449219,444.194916 1107.812988,453.110077 
	C1060.765747,461.232941 1013.728149,469.412140 966.680298,477.531921 
	C919.308899,485.707581 871.927124,493.823120 824.555420,501.997314 
	C781.118591,509.492523 737.694641,517.062805 694.255005,524.541687 
	C644.584229,533.093323 594.901184,541.573975 545.225769,550.098633 
	C519.321289,554.544067 493.472809,559.355286 467.491760,563.293518 
	C458.560516,564.647217 449.255920,564.508423 440.209381,563.849915 
	C431.661194,563.227722 426.124176,557.624695 423.302948,549.546387 
	C417.285339,532.315369 422.193481,520.132324 439.501709,514.289307 
	C452.326782,509.959747 465.875610,507.526001 479.262543,505.153687 
	C526.596069,496.765656 573.999268,488.770935 621.374817,480.619965 
	C669.079590,472.412323 716.787537,464.223419 764.485413,455.976288 
	C817.593323,446.793701 870.684998,437.518005 923.795532,428.350769 
	C974.938904,419.523071 1026.102295,410.811249 1077.247559,401.994812 
	C1126.750854,393.461426 1176.239990,384.845154 1225.740234,376.293488 
	C1254.910522,371.254028 1284.059570,366.078033 1313.287720,361.397125 
	C1320.435669,360.252350 1327.963989,359.915070 1335.128662,360.776245 
	C1348.820923,362.421936 1355.762817,369.931976 1355.868896,383.698059 
	C1355.964722,396.133911 1354.907104,408.625061 1353.621948,421.015472 
	C1351.011719,446.182159 1347.909302,471.297821 1345.000366,496.433472 
	C1341.116577,529.992920 1337.198608,563.548340 1333.342529,597.110962 
	C1329.846680,627.537109 1326.453125,657.974976 1322.942505,688.399353 
	C1319.451172,718.656860 1315.832153,748.899597 1312.339111,779.156982 
	C1309.150513,806.776062 1306.114014,834.412720 1302.873291,862.025635 
	C1302.196411,867.793823 1301.134888,873.539673 1299.870850,879.211121 
	C1297.697510,888.961548 1291.828003,895.716675 1282.055786,898.117554 
	C1271.250366,900.772217 1260.319946,903.001587 1249.357178,904.919434 
	C1199.710083,913.604736 1150.036621,922.139709 1100.364502,930.680359 
	C1051.017700,939.165100 1001.650879,947.534485 952.311157,956.060181 
	C893.471252,966.227417 834.651611,976.511108 775.821777,986.736572 
	C723.373962,995.852844 670.929443,1004.987976 618.469727,1014.035095 
	C611.109375,1015.304382 603.699890,1016.537537 596.262146,1017.057495 
	C581.000183,1018.124756 568.569214,1012.125793 560.654541,999.192078 
	C550.944031,983.323547 542.218445,966.842590 533.317322,950.490173 
	C493.884277,878.047119 454.564972,805.542053 415.159393,733.084045 
	C360.494629,632.567871 305.789795,532.073486 251.100922,431.570435 
	C246.648392,423.387939 242.186447,415.210571 237.419067,406.857971 
	C232.578461,398.017456 228.110733,389.316010 223.502106,380.689850 
	C216.540894,367.660309 209.630417,354.600037 202.427979,341.703796 
	C192.170197,323.336853 181.670578,319.081207 160.597794,323.096344 
	C131.267288,328.684875 101.848526,333.814697 72.444046,339.007812 
	C62.976154,340.679932 53.443092,341.994965 43.923092,343.356232 
	C36.196266,344.461060 28.635782,343.492065 21.464989,340.485748 
	C13.210753,337.025208 9.570056,330.164062 8.981118,321.625702 
	C7.556392,300.970032 17.408045,292.876953 36.481506,289.240051 
	C64.500702,283.897278 92.785294,279.962708 120.898445,275.091309 
	C143.293549,271.210693 165.614746,266.896698 187.944031,262.645264 
	C209.425461,258.555267 222.991180,264.534027 233.670609,283.691681 
	C244.983368,303.985413 255.915024,324.491547 267.025574,344.898132 
	C267.333954,345.464508 267.784637,345.953339 268.347839,346.752563 
z"/>
<path fill="#F9A929" opacity="1.000000" stroke="none" 
	d="
M760.441895,698.454468 
	C725.958313,703.609741 691.907593,708.672974 657.857788,713.742981 
	C651.615479,714.672424 648.931702,712.585449 648.001099,706.296387 
	C645.469421,689.186035 642.916992,672.078491 640.275574,654.984802 
	C638.892212,646.032532 640.191345,643.824036 648.988159,642.509033 
	C686.329285,636.927246 723.692078,631.489929 761.039124,625.947083 
	C800.520996,620.087463 839.990479,614.144104 879.471863,608.281128 
	C922.911072,601.830383 966.357666,595.428894 1009.801147,589.006836 
	C1048.967407,583.216919 1088.134521,577.432434 1127.299561,571.634460 
	C1132.909668,570.803955 1135.976440,572.837402 1136.808228,578.362976 
	C1139.531738,596.454163 1142.184814,614.556091 1144.810425,632.661804 
	C1145.767090,639.259399 1143.846802,641.795776 1137.064575,642.801697 
	C1111.723633,646.560364 1086.369141,650.227600 1061.027832,653.984253 
	C1021.371582,659.862793 981.726929,665.820618 942.067932,671.681091 
	C902.570557,677.517639 863.059875,683.264343 823.558289,689.072632 
	C802.660339,692.145569 781.769287,695.265808 760.441895,698.454468 
z"/>
<path fill="#F9A929" opacity="1.000000" stroke="none" 
	d="
M823.515747,1154.626953 
	C828.692444,1187.457397 822.309631,1217.316406 801.215820,1242.665039 
	C771.809631,1278.002808 733.495422,1291.521362 689.024231,1280.359863 
	C644.567444,1269.202148 616.668457,1239.378296 608.183716,1194.134888 
	C596.662048,1132.697876 636.065186,1077.428589 697.677551,1066.232910 
	C755.828064,1055.666260 813.315979,1095.897461 823.515747,1154.626953 
M687.383667,1127.816772 
	C667.302917,1141.859009 658.787292,1160.936523 662.991089,1185.185303 
	C666.579163,1205.882935 684.361450,1223.243042 705.632019,1227.762207 
	C725.171387,1231.913574 748.524353,1223.911377 761.570007,1202.648315 
	C771.903137,1185.806274 772.372192,1161.637939 760.274353,1144.054810 
	C743.424255,1119.564697 714.028748,1112.933350 687.383667,1127.816772 
z"/>
<path fill="#F9A929" opacity="1.000000" stroke="none" 
	d="
M1258.627441,1028.406494 
	C1294.704712,1075.664429 1287.337524,1143.242798 1241.095581,1180.662231 
	C1178.495605,1231.318726 1081.698242,1201.138672 1064.836670,1117.083496 
	C1054.859497,1067.346802 1079.138794,1017.667358 1123.344238,997.229858 
	C1171.862305,974.798401 1224.284302,986.794495 1258.627441,1028.406494 
M1224.951416,1083.802612 
	C1224.641479,1082.681030 1224.339355,1081.557129 1224.020386,1080.438110 
	C1216.499268,1054.041382 1187.010498,1036.323853 1160.324341,1042.166138 
	C1133.012939,1048.145264 1114.101807,1075.585205 1118.242920,1103.225830 
	C1122.643677,1132.599121 1151.126587,1154.321167 1179.217407,1149.727173 
	C1210.211182,1144.658203 1230.875000,1115.316528 1224.951416,1083.802612 
z"/>
<path fill="#F9A929" opacity="1.000000" stroke="none" 
	d="
M1037.610596,762.707153 
	C1010.521667,766.724182 983.860168,770.631042 957.203552,774.571167 
	C922.477112,779.704163 887.753723,784.858643 853.030457,790.013184 
	C815.842407,795.533569 778.656494,801.068420 741.468018,806.586121 
	C737.518494,807.172180 733.556824,807.675598 729.603271,808.235168 
	C723.428406,809.109131 721.183533,807.644104 720.271667,801.671875 
	C718.438965,789.668396 716.759949,777.641602 714.998169,765.627258 
	C714.394897,761.513123 713.641968,757.419006 713.122681,753.294922 
	C712.477356,748.170105 714.342346,745.766479 719.369324,745.023926 
	C776.137939,736.638428 832.913391,728.299316 889.675537,719.870728 
	C944.807678,711.684265 999.926025,703.405090 1055.051514,695.174011 
	C1065.908203,693.552917 1076.768066,691.953796 1087.630005,690.368286 
	C1092.298950,689.686768 1094.848511,691.840393 1095.718018,697.554749 
	C1097.844849,711.533081 1099.611450,725.570068 1101.959473,739.509949 
	C1104.577026,755.051697 1101.144043,753.108093 1089.863525,754.891724 
	C1072.613281,757.619263 1055.316895,760.053162 1037.610596,762.707153 
z"/>
<path fill="#010100" opacity="1.000000" stroke="none" 
	d="
M687.681641,1127.604980 
	C714.028748,1112.933350 743.424255,1119.564697 760.274353,1144.054810 
	C772.372192,1161.637939 771.903137,1185.806274 761.570007,1202.648315 
	C748.524353,1223.911377 725.171387,1231.913574 705.632019,1227.762207 
	C684.361450,1223.243042 666.579163,1205.882935 662.991089,1185.185303 
	C658.787292,1160.936523 667.302917,1141.859009 687.681641,1127.604980 
z"/>
<path fill="#010100" opacity="1.000000" stroke="none" 
	d="
M1225.000122,1084.225464 
	C1230.875000,1115.316528 1210.211182,1144.658203 1179.217407,1149.727173 
	C1151.126587,1154.321167 1122.643677,1132.599121 1118.242920,1103.225830 
	C1114.101807,1075.585205 1133.012939,1048.145264 1160.324341,1042.166138 
	C1187.010498,1036.323853 1216.499268,1054.041382 1224.020386,1080.438110 
	C1224.339355,1081.557129 1224.641479,1082.681030 1225.000122,1084.225464 
z"/>
</svg>